<svg xmlns="http://www.w3.org/2000/svg" width="64" height="64" viewBox="0 0 32 32" fill="none">
  <!-- Solid circle background for clear visibility in tabs -->
  <circle cx="16" cy="16" r="15" fill="#FF5722"/>

  <!-- Ghost body (white) simplified for small sizes -->
  <path d="M9.5 20.5v-6a6.5 6.5 0 0 1 13 0v6c0 .7-.4 1.4-1 1.8-.6.5-1.3.7-2.2.7s-1.6-.3-2.1-.8c-.5.5-1.2.8-2.1.8s-1.6-.3-2.1-.8c-.5.5-1.1.8-2 0-.5-.4-1-1.1-1-1.7z" fill="#FFFFFF"/>

  <!-- Eyes -->
  <circle cx="13.5" cy="14.5" r="1.1" fill="#FF5722"/>
  <circle cx="18.5" cy="14.5" r="1.1" fill="#FF5722"/>

  <!-- Subtle outline for separation on some backgrounds (very light, optional) -->
  <path d="M9.5 20.5v-6a6.5 6.5 0 0 1 13 0v6c0 .7-.4 1.4-1 1.8-.6.5-1.3.7-2.2.7s-1.6-.3-2.1-.8c-.5.5-1.2.8-2.1.8s-1.6-.3-2.1-.8c-.5.5-1.1.8-2 0-.5-.4-1-1.1-1-1.7z" fill="none" stroke="#ffffff" stroke-opacity="0.08" stroke-linecap="round" stroke-linejoin="round"/>
</svg>

